<svg width="25" height="25" viewBox="0 0 25 25" fill="none" xmlns="http://www.w3.org/2000/svg">
<path d="M9.48905 11.432C10.4274 13.0805 11.7926 14.4457 13.441 15.384L14.325 14.146C14.4672 13.9469 14.6774 13.8069 14.9159 13.7523C15.1543 13.6978 15.4045 13.7325 15.619 13.85C17.0334 14.6229 18.5953 15.0878 20.202 15.214C20.4528 15.2339 20.6869 15.3475 20.8576 15.5323C21.0283 15.7171 21.1231 15.9594 21.123 16.211V20.673C21.1231 20.9206 21.0313 21.1594 20.8654 21.3432C20.6995 21.527 20.4713 21.6427 20.225 21.668C19.695 21.723 19.161 21.75 18.623 21.75C10.063 21.75 3.12305 14.81 3.12305 6.25C3.12305 5.712 3.15005 5.178 3.20505 4.648C3.2303 4.4017 3.34603 4.17352 3.52984 4.00763C3.71364 3.84175 3.95245 3.74995 4.20005 3.75H8.66205C8.91361 3.74997 9.15594 3.84475 9.34073 4.01545C9.52551 4.18615 9.63917 4.42022 9.65905 4.671C9.78527 6.27779 10.2501 7.83968 11.023 9.254C11.1405 9.46856 11.1753 9.71874 11.1207 9.9572C11.0662 10.1956 10.9261 10.4058 10.727 10.548L9.48905 11.432ZM6.96705 10.775L8.86705 9.418C8.32783 8.25409 7.9584 7.01884 7.77005 5.75H5.13305C5.12705 5.916 5.12405 6.083 5.12405 6.25C5.12305 13.706 11.167 19.75 18.623 19.75C18.79 19.75 18.957 19.747 19.123 19.74V17.103C17.8542 16.9146 16.619 16.5452 15.455 16.006L14.098 17.906C13.5517 17.6937 13.0211 17.4431 12.51 17.156L12.452 17.123C10.4906 16.0067 8.86633 14.3824 7.75005 12.421L7.71705 12.363C7.42995 11.852 7.17933 11.3213 6.96705 10.775Z" fill="white"/>
</svg>
