<svg width="20" height="21" viewBox="0 0 20 21" fill="none" xmlns="http://www.w3.org/2000/svg">
<path d="M1.064 6.23266C1.89601 4.5759 3.17237 3.18317 4.75043 2.21013C6.32849 1.23708 8.14606 0.722073 10 0.722657C12.695 0.722657 14.959 1.71266 16.69 3.32766L13.823 6.19566C12.786 5.20466 11.468 4.69966 10 4.69966C7.395 4.69966 5.19 6.45966 4.405 8.82266C4.205 9.42266 4.091 10.0627 4.091 10.7227C4.091 11.3827 4.205 12.0227 4.405 12.6227C5.191 14.9867 7.395 16.7457 10 16.7457C11.345 16.7457 12.49 16.3907 13.386 15.7907C13.9054 15.4487 14.3501 15.0049 14.6932 14.4862C15.0363 13.9674 15.2706 13.3845 15.382 12.7727H10V8.90466H19.418C19.536 9.55866 19.6 10.2407 19.6 10.9497C19.6 13.9957 18.51 16.5597 16.618 18.2997C14.964 19.8277 12.7 20.7227 10 20.7227C8.68663 20.7232 7.38604 20.4649 6.17254 19.9625C4.95905 19.4602 3.85645 18.7236 2.92776 17.7949C1.99907 16.8662 1.2625 15.7636 0.760135 14.5501C0.257774 13.3366 -0.000524861 12.036 8.00714e-07 10.7227C8.00714e-07 9.10866 0.386001 7.58266 1.064 6.23266Z" fill="white"/>
</svg>
