<svg width="24" height="25" viewBox="0 0 24 25" fill="none" xmlns="http://www.w3.org/2000/svg">
<path d="M3.064 8.18139C3.89601 6.52463 5.17237 5.1319 6.75043 4.15886C8.32849 3.18581 10.1461 2.6708 12 2.67139C14.695 2.67139 16.959 3.66139 18.69 5.27639L15.823 8.14439C14.786 7.15339 13.468 6.64839 12 6.64839C9.395 6.64839 7.19 8.40839 6.405 10.7714C6.205 11.3714 6.091 12.0114 6.091 12.6714C6.091 13.3314 6.205 13.9714 6.405 14.5714C7.191 16.9354 9.395 18.6944 12 18.6944C13.345 18.6944 14.49 18.3394 15.386 17.7394C15.9054 17.3974 16.3501 16.9536 16.6932 16.4349C17.0363 15.9162 17.2706 15.3332 17.382 14.7214H12V10.8534H21.418C21.536 11.5074 21.6 12.1894 21.6 12.8984C21.6 15.9444 20.51 18.5084 18.618 20.2484C16.964 21.7764 14.7 22.6714 12 22.6714C10.6866 22.6719 9.38604 22.4136 8.17254 21.9113C6.95905 21.4089 5.85645 20.6723 4.92776 19.7436C3.99907 18.8149 3.2625 17.7123 2.76013 16.4988C2.25777 15.2854 1.99948 13.9848 2 12.6714C2 11.0574 2.386 9.53139 3.064 8.18139Z" fill="black"/>
</svg>
