<svg width="21" height="19" viewBox="0 0 21 19" fill="none" xmlns="http://www.w3.org/2000/svg">
<path d="M10.1609 1.87664C12.5099 -0.232364 16.1399 -0.162364 18.4029 2.10464C20.6649 4.37264 20.7429 7.98464 18.6389 10.3406L10.1589 18.8326L1.68092 10.3406C-0.423082 7.98464 -0.344082 4.36664 1.91692 2.10464C4.18192 -0.159364 7.80492 -0.235364 10.1609 1.87664V1.87664ZM16.9869 3.51764C15.4869 2.01564 13.0669 1.95464 11.4969 3.36464L10.1619 4.56264L8.82592 3.36564C7.25092 1.95364 4.83592 2.01564 3.33192 3.51964C1.84192 5.00964 1.76692 7.39464 3.13992 8.97064L10.1599 16.0016L17.1799 8.97164C18.5539 7.39464 18.4789 5.01264 16.9869 3.51764V3.51764Z" fill="black"/>
</svg>
