<svg width="18" height="20" viewBox="0 0 18 20" fill="none" xmlns="http://www.w3.org/2000/svg">
<path d="M18 18.5074C18 18.7726 17.8946 19.0269 17.7071 19.2145C17.5196 19.402 17.2652 19.5074 17 19.5074H1C0.734784 19.5074 0.48043 19.402 0.292893 19.2145C0.105357 19.0269 2.4071e-07 18.7726 2.4071e-07 18.5074V7.99735C-0.000105484 7.84496 0.0346172 7.69457 0.101516 7.55765C0.168415 7.42073 0.26572 7.30092 0.386 7.20735L8.386 0.985352C8.56154 0.848797 8.7776 0.774658 9 0.774658C9.2224 0.774658 9.43846 0.848797 9.614 0.985352L17.614 7.20735C17.7343 7.30092 17.8316 7.42073 17.8985 7.55765C17.9654 7.69457 18.0001 7.84496 18 7.99735V18.5074ZM16 17.5074V8.48535L9 3.04135L2 8.48535V17.5074H16Z" fill="black"/>
</svg>
