<svg width="104" height="41" viewBox="0 0 104 41" fill="none" xmlns="http://www.w3.org/2000/svg">
<rect x="7.77153" y="28.1847" width="48.3519" height="0.422696" fill="black" stroke="black" stroke-width="0.422696"/>
<rect x="65.0383" y="28.1847" width="32.1489" height="0.422696" fill="black" stroke="black" stroke-width="0.422696"/>
<path d="M7.51115 25.9409V11.7222H12.6186C14.448 11.7222 15.838 12.0575 16.7885 12.728C17.7455 13.3986 18.224 14.3719 18.224 15.6479C18.224 16.3836 18.0548 17.0119 17.7162 17.5327C17.3777 18.0535 16.8796 18.4377 16.2221 18.6851C16.9643 18.8804 17.5339 19.245 17.9311 19.7788C18.3282 20.3127 18.5268 20.9637 18.5268 21.7319C18.5268 23.1252 18.0841 24.1733 17.1986 24.8765C16.3197 25.5731 15.0144 25.9279 13.2826 25.9409H7.51115ZM10.9389 19.896V23.3042H13.185C13.8035 23.3042 14.2787 23.1642 14.6108 22.8843C14.9428 22.5978 15.1088 22.1974 15.1088 21.6831C15.1088 20.4982 14.5196 19.9025 13.3412 19.896H10.9389ZM10.9389 17.6499H12.726C13.4747 17.6434 14.0085 17.5067 14.3276 17.2397C14.6466 16.9728 14.8061 16.5789 14.8061 16.0581C14.8061 15.4591 14.6335 15.0295 14.2885 14.769C13.9434 14.5021 13.3868 14.3687 12.6186 14.3687H10.9389V17.6499ZM29.2397 19.9155H23.849V23.3042H30.2162V25.9409H20.4213V11.7222H30.2358V14.3687H23.849V17.3667H29.2397V19.9155ZM38.9467 22.1616C38.9467 21.6603 38.7677 21.2697 38.4096 20.9897C38.058 20.7098 37.4363 20.4201 36.5444 20.1206C35.6524 19.8211 34.9233 19.5314 34.3569 19.2515C32.5144 18.3465 31.5932 17.103 31.5932 15.521C31.5932 14.7332 31.821 14.0399 32.2768 13.4409C32.739 12.8354 33.3901 12.3667 34.2299 12.0347C35.0697 11.6961 36.0138 11.5269 37.0619 11.5269C38.0841 11.5269 38.9988 11.7091 39.8061 12.0737C40.6199 12.4383 41.2514 12.9591 41.7006 13.6362C42.1498 14.3068 42.3744 15.075 42.3744 15.9409H38.9565C38.9565 15.3615 38.7774 14.9123 38.4194 14.5933C38.0678 14.2743 37.5893 14.1147 36.9838 14.1147C36.3718 14.1147 35.8868 14.2515 35.5287 14.5249C35.1772 14.7918 35.0014 15.1336 35.0014 15.5503C35.0014 15.9149 35.1967 16.2469 35.5873 16.5464C35.9779 16.8394 36.6648 17.1453 37.6479 17.4644C38.6309 17.7769 39.4382 18.1154 40.0697 18.48C41.6062 19.3654 42.3744 20.5861 42.3744 22.1421C42.3744 23.3856 41.9057 24.3621 40.9682 25.0718C40.0307 25.7814 38.7449 26.1362 37.1108 26.1362C35.9584 26.1362 34.9135 25.9312 33.976 25.521C33.045 25.1043 32.3419 24.5379 31.8666 23.8218C31.3979 23.0991 31.1635 22.269 31.1635 21.3315H34.601C34.601 22.0933 34.7963 22.6564 35.1869 23.021C35.5841 23.3791 36.2253 23.5581 37.1108 23.5581C37.6772 23.5581 38.1231 23.4377 38.4486 23.1968C38.7807 22.9494 38.9467 22.6043 38.9467 22.1616ZM55.2943 14.3687H51.0268V25.9409H47.599V14.3687H43.4096V11.7222H55.2943V14.3687Z" fill="black"/>
<path d="M61.9253 25.7065C62.6961 25.3628 63.394 24.967 64.019 24.519C64.6545 24.0711 65.217 23.6024 65.7065 23.1128C66.2065 22.6128 66.6284 22.1076 66.9722 21.5972C67.3263 21.0763 67.6076 20.5815 67.8159 20.1128C67.9097 19.8836 68.0867 19.769 68.3472 19.769C68.5242 19.769 68.6649 19.8315 68.769 19.9565C68.8836 20.0711 68.9409 20.2013 68.9409 20.3472C68.9409 20.4305 68.9253 20.5086 68.894 20.5815C68.6649 21.092 68.3732 21.6232 68.019 22.1753C67.6649 22.717 67.2326 23.2534 66.7222 23.7847C66.2222 24.3055 65.6336 24.8107 64.9565 25.3003C64.2795 25.7899 63.5034 26.2378 62.6284 26.644C63.1909 27.2274 63.6805 27.8732 64.0972 28.5815C64.5138 29.3003 64.8576 30.0451 65.1284 30.8159C65.4097 31.5868 65.618 32.3628 65.7534 33.144C65.8992 33.9357 65.9722 34.6909 65.9722 35.4097C65.9722 36.0659 65.9097 36.6805 65.7847 37.2534C65.6701 37.8368 65.493 38.342 65.2534 38.769C65.0242 39.1961 64.743 39.5295 64.4097 39.769C64.0763 40.019 63.6961 40.144 63.269 40.144C62.644 40.144 62.1597 39.9097 61.8159 39.4409C61.4722 38.9826 61.217 38.342 61.0503 37.519C60.894 36.7065 60.8003 35.743 60.769 34.6284C60.7482 33.5243 60.7378 32.3211 60.7378 31.019C60.7378 30.3732 60.7378 29.618 60.7378 28.7534C60.7378 27.8993 60.7378 26.9774 60.7378 25.9878C60.7482 25.0086 60.7534 23.9826 60.7534 22.9097C60.7638 21.8263 60.7742 20.743 60.7847 19.6597C60.7951 18.5763 60.8055 17.5138 60.8159 16.4722C60.8263 15.4201 60.842 14.4253 60.8628 13.4878C60.894 11.6961 60.9565 10.0972 61.0503 8.69092C61.144 7.28467 61.2951 6.09717 61.5034 5.12842C61.7117 4.15967 61.993 3.42529 62.3472 2.92529C62.7117 2.41488 63.1701 2.15967 63.7222 2.15967C64.1597 2.15967 64.5295 2.28467 64.8315 2.53467C65.1336 2.77425 65.3784 3.10238 65.5659 3.51904C65.7534 3.92529 65.8888 4.40446 65.9722 4.95654C66.0555 5.50863 66.0972 6.08675 66.0972 6.69092C66.0972 7.96175 65.9878 9.19092 65.769 10.3784C65.5503 11.5659 65.2534 12.717 64.8784 13.8315C64.5034 14.9461 64.0607 16.0347 63.5503 17.0972C63.0503 18.1597 62.5138 19.2065 61.9409 20.2378C61.9409 20.6649 61.9409 21.1284 61.9409 21.6284C61.9409 22.118 61.9409 22.6128 61.9409 23.1128C61.9409 23.6024 61.9357 24.0763 61.9253 24.5347C61.9253 24.9826 61.9253 25.3732 61.9253 25.7065ZM61.9722 17.8315C62.3992 17.0295 62.7899 16.1857 63.144 15.3003C63.5086 14.4045 63.8211 13.4826 64.0815 12.5347C64.342 11.5868 64.5451 10.618 64.6909 9.62842C64.8367 8.63883 64.9097 7.64404 64.9097 6.64404C64.9097 6.14404 64.8836 5.69092 64.8315 5.28467C64.7899 4.87842 64.717 4.53467 64.6128 4.25342C64.519 3.96175 64.394 3.73779 64.2378 3.58154C64.092 3.41488 63.9201 3.33154 63.7222 3.33154C63.5138 3.33154 63.3315 3.45654 63.1753 3.70654C63.019 3.95654 62.8836 4.28988 62.769 4.70654C62.6545 5.12321 62.5555 5.60238 62.4722 6.14404C62.3992 6.68571 62.3367 7.25342 62.2847 7.84717C62.2326 8.4305 62.1909 9.01904 62.1597 9.61279C62.1284 10.1961 62.1024 10.7482 62.0815 11.269C62.0711 11.7795 62.0607 12.2326 62.0503 12.6284C62.0503 13.0243 62.0503 13.3211 62.0503 13.519C62.0399 13.9357 62.0295 14.3055 62.019 14.6284C62.019 14.9513 62.0138 15.269 62.0034 15.5815C61.993 15.894 61.9826 16.2274 61.9722 16.5815C61.9722 16.9357 61.9722 17.3524 61.9722 17.8315ZM61.9253 27.6284C61.9253 28.2847 61.9201 28.894 61.9097 29.4565C61.9097 30.0295 61.9097 30.5503 61.9097 31.019C61.9097 31.9878 61.9149 32.9461 61.9253 33.894C61.9357 34.842 61.9826 35.6909 62.0659 36.4409C62.1597 37.2013 62.2951 37.8107 62.4722 38.269C62.6597 38.7378 62.9253 38.9722 63.269 38.9722C63.5815 38.9722 63.8367 38.8315 64.0347 38.5503C64.2326 38.269 64.3836 37.9357 64.4878 37.5503C64.6024 37.1649 64.6805 36.769 64.7222 36.3628C64.7638 35.967 64.7847 35.644 64.7847 35.394C64.7847 34.7586 64.7222 34.092 64.5972 33.394C64.4826 32.6961 64.3003 32.0034 64.0503 31.3159C63.8107 30.6388 63.5138 29.9826 63.1597 29.3472C62.8055 28.7118 62.394 28.1388 61.9253 27.6284ZM69.7065 23.2222C69.9253 23.5243 70.2065 23.769 70.5503 23.9565C70.894 24.1336 71.3159 24.2222 71.8159 24.2222C72.3263 24.2222 72.7899 24.1024 73.2065 23.8628C73.6232 23.6128 74.0034 23.2899 74.3472 22.894C74.6909 22.4982 74.9982 22.0555 75.269 21.5659C75.5399 21.0763 75.7847 20.5868 76.0034 20.0972C76.0555 19.9826 76.1284 19.8993 76.2222 19.8472C76.3159 19.7847 76.4201 19.7534 76.5347 19.7534C76.7117 19.7534 76.8524 19.8159 76.9565 19.9409C77.0711 20.0659 77.1284 20.2013 77.1284 20.3472C77.1284 20.3993 77.1232 20.4461 77.1128 20.4878C77.1024 20.519 77.0867 20.5555 77.0659 20.5972C76.3472 22.1805 75.5607 23.3732 74.7065 24.1753C73.8628 24.9774 72.9045 25.3888 71.8315 25.4097C71.144 25.4097 70.5503 25.2743 70.0503 25.0034C69.5503 24.743 69.1388 24.4045 68.8159 23.9878C68.493 23.5607 68.2534 23.0815 68.0972 22.5503C67.9409 22.019 67.8628 21.4878 67.8628 20.9565C67.8628 20.4253 67.9253 19.9357 68.0503 19.4878C68.1857 19.0399 68.3732 18.6493 68.6128 18.3159C68.8628 17.9826 69.1545 17.7222 69.4878 17.5347C69.8315 17.3472 70.2065 17.2534 70.6128 17.2534C70.8524 17.2534 71.0867 17.3055 71.3159 17.4097C71.5555 17.5034 71.769 17.644 71.9565 17.8315C72.144 18.0086 72.2951 18.2274 72.4097 18.4878C72.5242 18.7482 72.5815 19.0451 72.5815 19.3784C72.5815 19.8055 72.5086 20.2065 72.3628 20.5815C72.217 20.9565 72.0138 21.3055 71.7534 21.6284C71.5034 21.9513 71.2013 22.2482 70.8472 22.519C70.493 22.7899 70.1128 23.0243 69.7065 23.2222ZM69.2378 22.2065C69.5607 22.0711 69.8524 21.8993 70.1128 21.6909C70.3836 21.4826 70.6128 21.2534 70.8003 21.0034C70.9878 20.7534 71.1336 20.493 71.2378 20.2222C71.342 19.9409 71.394 19.6597 71.394 19.3784C71.394 19.0659 71.3159 18.8315 71.1597 18.6753C71.0034 18.5086 70.8211 18.4253 70.6128 18.4253C70.3315 18.4253 70.092 18.5034 69.894 18.6597C69.6961 18.8159 69.5347 19.019 69.4097 19.269C69.2847 19.519 69.1909 19.8003 69.1284 20.1128C69.0763 20.4149 69.0503 20.717 69.0503 21.019C69.0503 21.2065 69.0659 21.4045 69.0972 21.6128C69.1388 21.8211 69.1857 22.019 69.2378 22.2065ZM84.9097 20.6128C84.7951 20.8524 84.6492 21.1388 84.4722 21.4722C84.3055 21.7951 84.1128 22.1336 83.894 22.4878C83.6753 22.842 83.4305 23.1961 83.1597 23.5503C82.8888 23.894 82.592 24.2065 82.269 24.4878C81.9565 24.7586 81.618 24.9774 81.2534 25.144C80.8992 25.3211 80.519 25.4097 80.1128 25.4097C79.4878 25.4097 78.9513 25.217 78.5034 24.8315C78.0555 24.4461 77.6753 23.9409 77.3628 23.3159C77.0503 22.6909 76.7951 21.9826 76.5972 21.1909C76.4097 20.3888 76.2638 19.5763 76.1597 18.7534C76.0555 17.9201 75.9826 17.1128 75.9409 16.3315C75.9097 15.5503 75.894 14.8576 75.894 14.2534C75.894 13.3784 75.9201 12.4722 75.9722 11.5347C76.0347 10.5972 76.1284 9.6805 76.2534 8.78467C76.3784 7.88883 76.5347 7.03988 76.7222 6.23779C76.9201 5.43571 77.1492 4.73258 77.4097 4.12842C77.6805 3.52425 77.9878 3.04508 78.3315 2.69092C78.6753 2.33675 79.0659 2.15967 79.5034 2.15967C79.8472 2.15967 80.1545 2.243 80.4253 2.40967C80.7065 2.56592 80.9409 2.82633 81.1284 3.19092C81.3159 3.5555 81.4617 4.02946 81.5659 4.61279C81.6701 5.19613 81.7222 5.90967 81.7222 6.75342C81.7222 7.79508 81.6128 8.87321 81.394 9.98779C81.1753 11.092 80.8784 12.2065 80.5034 13.3315C80.1284 14.4565 79.6857 15.5815 79.1753 16.7065C78.6649 17.8211 78.118 18.9097 77.5347 19.9722C77.7951 21.2951 78.144 22.3368 78.5815 23.0972C79.019 23.8472 79.5451 24.2222 80.1597 24.2222C80.5763 24.2222 80.9774 24.0607 81.3628 23.7378C81.7482 23.4045 82.1024 23.0138 82.4253 22.5659C82.7482 22.118 83.0295 21.6649 83.269 21.2065C83.519 20.7378 83.7117 20.3628 83.8472 20.0815C83.8992 19.9774 83.9722 19.8993 84.0659 19.8472C84.1597 19.7847 84.2638 19.7534 84.3784 19.7534C84.5555 19.7534 84.6961 19.8159 84.8003 19.9409C84.9149 20.0659 84.9722 20.2065 84.9722 20.3628C84.9722 20.4253 84.9513 20.5086 84.9097 20.6128ZM77.0815 14.3315C77.0815 14.9982 77.0972 15.6388 77.1284 16.2534C77.1597 16.868 77.2013 17.4565 77.2534 18.019C77.6909 17.1753 78.1076 16.2795 78.5034 15.3315C78.8992 14.3732 79.2482 13.4097 79.5503 12.4409C79.8524 11.4618 80.092 10.493 80.269 9.53467C80.4565 8.56592 80.5503 7.64404 80.5503 6.76904C80.5503 5.53988 80.4513 4.65967 80.2534 4.12842C80.0555 3.59717 79.7899 3.33154 79.4565 3.33154C79.2378 3.33154 79.0242 3.48258 78.8159 3.78467C78.618 4.08675 78.4305 4.49821 78.2534 5.01904C78.0763 5.53988 77.9149 6.15446 77.769 6.86279C77.6232 7.57113 77.4982 8.33154 77.394 9.14404C77.3003 9.95654 77.2222 10.8055 77.1597 11.6909C77.1076 12.5763 77.0815 13.4565 77.0815 14.3315ZM92.7534 20.6128C92.6388 20.8524 92.493 21.1388 92.3159 21.4722C92.1492 21.7951 91.9565 22.1336 91.7378 22.4878C91.519 22.842 91.2742 23.1961 91.0034 23.5503C90.7326 23.894 90.4357 24.2065 90.1128 24.4878C89.8003 24.7586 89.4617 24.9774 89.0972 25.144C88.743 25.3211 88.3628 25.4097 87.9565 25.4097C87.3315 25.4097 86.7951 25.217 86.3472 24.8315C85.8992 24.4461 85.519 23.9409 85.2065 23.3159C84.894 22.6909 84.6388 21.9826 84.4409 21.1909C84.2534 20.3888 84.1076 19.5763 84.0034 18.7534C83.8992 17.9201 83.8263 17.1128 83.7847 16.3315C83.7534 15.5503 83.7378 14.8576 83.7378 14.2534C83.7378 13.3784 83.7638 12.4722 83.8159 11.5347C83.8784 10.5972 83.9722 9.6805 84.0972 8.78467C84.2222 7.88883 84.3784 7.03988 84.5659 6.23779C84.7638 5.43571 84.993 4.73258 85.2534 4.12842C85.5242 3.52425 85.8315 3.04508 86.1753 2.69092C86.519 2.33675 86.9097 2.15967 87.3472 2.15967C87.6909 2.15967 87.9982 2.243 88.269 2.40967C88.5503 2.56592 88.7847 2.82633 88.9722 3.19092C89.1597 3.5555 89.3055 4.02946 89.4097 4.61279C89.5138 5.19613 89.5659 5.90967 89.5659 6.75342C89.5659 7.79508 89.4565 8.87321 89.2378 9.98779C89.019 11.092 88.7222 12.2065 88.3472 13.3315C87.9722 14.4565 87.5295 15.5815 87.019 16.7065C86.5086 17.8211 85.9617 18.9097 85.3784 19.9722C85.6388 21.2951 85.9878 22.3368 86.4253 23.0972C86.8628 23.8472 87.3888 24.2222 88.0034 24.2222C88.4201 24.2222 88.8211 24.0607 89.2065 23.7378C89.592 23.4045 89.9461 23.0138 90.269 22.5659C90.592 22.118 90.8732 21.6649 91.1128 21.2065C91.3628 20.7378 91.5555 20.3628 91.6909 20.0815C91.743 19.9774 91.8159 19.8993 91.9097 19.8472C92.0034 19.7847 92.1076 19.7534 92.2222 19.7534C92.3992 19.7534 92.5399 19.8159 92.644 19.9409C92.7586 20.0659 92.8159 20.2065 92.8159 20.3628C92.8159 20.4253 92.7951 20.5086 92.7534 20.6128ZM84.9253 14.3315C84.9253 14.9982 84.9409 15.6388 84.9722 16.2534C85.0034 16.868 85.0451 17.4565 85.0972 18.019C85.5347 17.1753 85.9513 16.2795 86.3472 15.3315C86.743 14.3732 87.092 13.4097 87.394 12.4409C87.6961 11.4618 87.9357 10.493 88.1128 9.53467C88.3003 8.56592 88.394 7.64404 88.394 6.76904C88.394 5.53988 88.2951 4.65967 88.0972 4.12842C87.8992 3.59717 87.6336 3.33154 87.3003 3.33154C87.0815 3.33154 86.868 3.48258 86.6597 3.78467C86.4617 4.08675 86.2742 4.49821 86.0972 5.01904C85.9201 5.53988 85.7586 6.15446 85.6128 6.86279C85.467 7.57113 85.342 8.33154 85.2378 9.14404C85.144 9.95654 85.0659 10.8055 85.0034 11.6909C84.9513 12.5763 84.9253 13.4565 84.9253 14.3315ZM103.785 20.5815C103.743 20.6649 103.654 20.842 103.519 21.1128C103.394 21.3732 103.227 21.6753 103.019 22.019C102.821 22.3628 102.587 22.7222 102.316 23.0972C102.045 23.4722 101.743 23.8159 101.41 24.1284C101.076 24.4409 100.717 24.7013 100.332 24.9097C99.9461 25.1076 99.5399 25.2065 99.1128 25.2065C98.5086 25.2065 97.9982 25.0138 97.5815 24.6284C97.1753 24.243 96.8784 23.7586 96.6909 23.1753C96.3367 23.769 95.9149 24.243 95.4253 24.5972C94.9357 24.9409 94.4461 25.1128 93.9565 25.1128C93.5711 25.1128 93.2222 25.0451 92.9097 24.9097C92.5972 24.7638 92.3315 24.5659 92.1128 24.3159C91.894 24.0555 91.7222 23.7534 91.5972 23.4097C91.4826 23.0659 91.4253 22.6909 91.4253 22.2847C91.4253 21.4722 91.5607 20.7586 91.8315 20.144C92.1128 19.519 92.467 18.9982 92.894 18.5815C93.3211 18.1649 93.7899 17.8524 94.3003 17.644C94.8211 17.4357 95.3211 17.3315 95.8003 17.3315C96.1232 17.3315 96.4201 17.3784 96.6909 17.4722C96.9617 17.5555 97.1909 17.6493 97.3784 17.7534C97.5763 17.8576 97.7274 17.9565 97.8315 18.0503C97.9357 18.1336 97.993 18.1805 98.0034 18.1909C98.118 18.3263 98.1753 18.467 98.1753 18.6128C98.1753 18.769 98.118 18.9097 98.0034 19.0347C97.8888 19.1493 97.7534 19.2065 97.5972 19.2065C97.4305 19.2065 97.2899 19.1493 97.1753 19.0347C97.1545 19.0138 97.1076 18.9774 97.0347 18.9253C96.9617 18.8628 96.8628 18.8003 96.7378 18.7378C96.6128 18.6753 96.4617 18.6232 96.2847 18.5815C96.118 18.5295 95.9253 18.5034 95.7065 18.5034C95.3836 18.5034 95.0399 18.5763 94.6753 18.7222C94.3107 18.868 93.9774 19.0972 93.6753 19.4097C93.3732 19.7118 93.118 20.0972 92.9097 20.5659C92.7117 21.0243 92.6128 21.5711 92.6128 22.2065C92.6128 22.4045 92.6336 22.6076 92.6753 22.8159C92.717 23.0138 92.7899 23.1961 92.894 23.3628C92.9982 23.5295 93.1388 23.6649 93.3159 23.769C93.493 23.8732 93.7117 23.9253 93.9722 23.9253C94.1597 23.9253 94.3732 23.8628 94.6128 23.7378C94.8628 23.6128 95.0972 23.4201 95.3159 23.1597C95.5451 22.8993 95.7482 22.5711 95.9253 22.1753C96.1128 21.7795 96.243 21.3107 96.3159 20.769C96.3367 20.6232 96.4045 20.5034 96.519 20.4097C96.6336 20.3055 96.769 20.2534 96.9253 20.2534C97.0711 20.2534 97.1961 20.3107 97.3003 20.4253C97.4149 20.5399 97.4774 20.6701 97.4878 20.8159C97.4982 21.0138 97.519 21.2951 97.5503 21.6597C97.5815 22.0138 97.6492 22.368 97.7534 22.7222C97.868 23.0763 98.0347 23.3836 98.2534 23.644C98.4722 23.9045 98.7742 24.0347 99.1597 24.0347C99.4097 24.0347 99.6545 23.967 99.894 23.8315C100.144 23.6961 100.384 23.519 100.613 23.3003C100.852 23.0711 101.076 22.8159 101.285 22.5347C101.503 22.243 101.701 21.9513 101.878 21.6597C102.055 21.368 102.212 21.0868 102.347 20.8159C102.483 20.5451 102.597 20.3107 102.691 20.1128C102.743 19.9982 102.816 19.9097 102.91 19.8472C103.014 19.7847 103.123 19.7534 103.238 19.7534C103.415 19.7534 103.555 19.8211 103.66 19.9565C103.774 20.0815 103.832 20.217 103.832 20.3628C103.832 20.4357 103.816 20.5086 103.785 20.5815Z" fill="black"/>
</svg>
