<svg width="129" height="124" viewBox="0 0 129 124" fill="none" xmlns="http://www.w3.org/2000/svg">
<path d="M6.84886 96.4978C-3.75179 72.4978 2.03622 25.8697 40.8362 15.0697C64.8366 8.38918 83.8366 13.0696 90.3366 15.0697C90.5033 9.40308 92.1708 0.613115 99.8366 1.56984C103.837 2.06905 104.17 8.40302 101.837 10.0696C105.337 6.56961 113.593 3.92655 115.352 9.4978C115.983 11.4972 114.337 15.0697 111.337 17.0696C116.337 16.0691 121.337 21.069 118.837 25.069C117.651 26.9652 115.337 27.569 111.337 28.0696C116.337 32.5696 126.837 43.9978 126.837 64.0691C126.837 83.5755 124.798 94.261 115.352 104.998C103.852 118.07 80.3649 121.926 62.3499 121.998C44.3348 122.07 17.4495 120.498 6.84886 96.4978Z" stroke="black" stroke-width="2.5" stroke-linecap="round" stroke-linejoin="round"/>
<path d="M54.3489 77.4978C55.0632 79.7034 57.6346 83.9822 62.206 83.4529C66.7774 82.9235 68.8727 79.2623 69.3489 77.4978" stroke="black" stroke-width="6" stroke-linecap="round" stroke-linejoin="round"/>
<path d="M40.3489 54.4978C41.1108 52.6598 43.8536 49.0941 48.7298 49.5352C53.606 49.9764 55.8409 53.0274 56.3489 54.4978" stroke="black" stroke-width="6" stroke-linecap="round" stroke-linejoin="round"/>
<path d="M74.3489 54.4978C75.0632 52.6598 77.6346 49.0941 82.206 49.5352C86.7774 49.9764 88.8727 53.0274 89.3489 54.4978" stroke="black" stroke-width="6" stroke-linecap="round" stroke-linejoin="round"/>
</svg>
