<svg width="21" height="21" viewBox="0 0 21 21" fill="none" xmlns="http://www.w3.org/2000/svg">
<path d="M13.8193 5.954L7.81928 2.954L2.88428 5.069V17.717L7.94928 15.547L13.9493 18.547L18.8843 16.43V3.783L13.8193 5.953V5.954ZM0.884278 3.75L7.88428 0.75L13.8843 3.75L20.1873 1.049C20.2634 1.01638 20.3464 1.00317 20.4288 1.01054C20.5113 1.01792 20.5906 1.04565 20.6597 1.09124C20.7288 1.13684 20.7855 1.19888 20.8247 1.2718C20.8639 1.34471 20.8844 1.42622 20.8843 1.509V17.75L13.8843 20.75L7.88428 17.75L1.58128 20.451C1.50519 20.4836 1.4222 20.4968 1.33974 20.4895C1.25729 20.4821 1.17796 20.4544 1.10886 20.4088C1.03977 20.3632 0.983083 20.3011 0.943884 20.2282C0.904686 20.1553 0.884204 20.0738 0.884278 19.991V3.75ZM4.88428 9.75H6.88428V11.75H4.88428V9.75ZM8.88428 9.75H10.8843V11.75H8.88428V9.75ZM14.8823 9.687L16.1203 8.45L17.1803 9.51L15.9433 10.748L17.1803 11.986L16.1203 13.046L14.8823 11.809L13.6453 13.046L12.5843 11.986L13.8213 10.748L12.5843 9.511L13.6443 8.45L14.8823 9.687Z" fill="white"/>
</svg>
