<svg width="16" height="23" viewBox="0 0 16 23" fill="none" xmlns="http://www.w3.org/2000/svg">
<path d="M14.3288 10.7774C15.8908 12.3384 15.8908 14.8714 14.3288 16.4334L8.67182 22.0904C8.28182 22.4804 7.64782 22.4804 7.25782 22.0904L1.60082 16.4334C0.0388212 14.8714 0.0388212 12.3384 1.60082 10.7764C3.16282 9.21436 5.69582 9.21436 7.25782 10.7764L7.96382 11.4834L8.67182 10.7764C10.2338 9.21436 12.7668 9.21436 14.3288 10.7764V10.7774ZM3.01482 12.1894C2.23482 12.9704 2.23482 14.2374 3.01482 15.0184L7.96482 19.9684L12.9148 15.0184C13.6948 14.2374 13.6948 12.9704 12.9148 12.1894C12.1338 11.4094 10.8668 11.4094 10.0848 12.1914L7.96282 14.3094L5.84282 12.1894C5.06282 11.4094 3.79582 11.4094 3.01482 12.1894V12.1894ZM7.96482 0.797363C10.1748 0.797363 11.9648 2.58736 11.9648 4.79736C11.9648 7.00736 10.1748 8.79736 7.96482 8.79736C5.75482 8.79736 3.96482 7.00736 3.96482 4.79736C3.96482 2.58736 5.75482 0.797363 7.96482 0.797363ZM7.96482 2.79736C6.85982 2.79736 5.96482 3.69236 5.96482 4.79736C5.96482 5.90236 6.85982 6.79736 7.96482 6.79736C9.06982 6.79736 9.96482 5.90236 9.96482 4.79736C9.96482 3.69236 9.06982 2.79736 7.96482 2.79736Z" fill="black"/>
</svg>
