<svg width="20" height="19" viewBox="0 0 20 19" fill="none" xmlns="http://www.w3.org/2000/svg">
<path d="M0 1.76766C0.00183004 1.50504 0.1069 1.25368 0.292513 1.06788C0.478126 0.882076 0.72938 0.776753 0.992 0.774658H19.008C19.556 0.774658 20 1.21966 20 1.76766V17.7817C19.9982 18.0443 19.8931 18.2956 19.7075 18.4814C19.5219 18.6672 19.2706 18.7726 19.008 18.7747H0.992C0.728813 18.7744 0.476497 18.6697 0.290489 18.4835C0.104482 18.2973 -1.33455e-07 18.0448 0 17.7817V1.76766ZM2 2.77466V16.7747H18V2.77466H2ZM4 4.77466H10V10.7747H4V4.77466ZM6 6.77466V8.77466H8V6.77466H6ZM4 12.7747H16V14.7747H4V12.7747ZM12 4.77466H16V6.77466H12V4.77466ZM12 8.77466H16V10.7747H12V8.77466Z" fill="black"/>
</svg>
