<svg width="60" height="60" viewBox="0 0 60 60" fill="none" xmlns="http://www.w3.org/2000/svg">
<path d="M0 30C0 13.4315 13.4315 0 30 0V0C46.5685 0 60 13.4315 60 30V30C60 46.5685 46.5685 60 30 60V60C13.4315 60 0 46.5685 0 30V30Z" fill="white"/>
<path d="M36.2138 35.1633C37.3632 33.9286 38.1315 32.3785 38.4238 30.7046C38.7161 29.0308 38.5196 27.3065 37.8585 25.745C37.1975 24.1835 36.1008 22.8531 34.7042 21.9184C33.3075 20.9837 31.6721 20.4855 30 20.4855C28.3279 20.4855 26.6925 20.9837 25.2958 21.9184C23.8992 22.8531 22.8025 24.1835 22.1415 25.745C21.4804 27.3065 21.2839 29.0308 21.5762 30.7046C21.8685 32.3785 22.6368 33.9286 23.7862 35.1633C24.4458 34.0932 25.3621 33.2111 26.449 32.5998C27.536 31.9886 28.7579 31.6683 30 31.6689C31.2421 31.6683 32.464 31.9886 33.551 32.5998C34.6379 33.2111 35.5542 34.0932 36.2138 35.1633V35.1633ZM25.5817 36.9937L30 41.4846L34.4183 36.9937C34.0221 36.1432 33.3965 35.4245 32.6144 34.9212C31.8322 34.418 30.9256 34.1508 30 34.1508C29.0744 34.1508 28.1678 34.418 27.3856 34.9212C26.6035 35.4245 25.9779 36.1432 25.5817 36.9937V36.9937ZM30 45L22.2218 37.0918C20.6834 35.5278 19.6358 33.535 19.2114 31.3656C18.7869 29.1961 19.0048 26.9474 19.8373 24.9039C20.6699 22.8603 22.0798 21.1137 23.8887 19.8848C25.6977 18.6559 27.8244 18 30 18C32.1756 18 34.3023 18.6559 36.1113 19.8848C37.9202 21.1137 39.3301 22.8603 40.1627 24.9039C40.9952 26.9474 41.2131 29.1961 40.7886 31.3656C40.3642 33.535 39.3166 35.5278 37.7782 37.0918L30 45ZM30 27.941C30.3242 27.941 30.635 27.8101 30.8642 27.5771C31.0935 27.344 31.2222 27.028 31.2222 26.6984C31.2222 26.3688 31.0935 26.0527 30.8642 25.8197C30.635 25.5867 30.3242 25.4557 30 25.4557C29.6758 25.4557 29.365 25.5867 29.1358 25.8197C28.9065 26.0527 28.7778 26.3688 28.7778 26.6984C28.7778 27.028 28.9065 27.344 29.1358 27.5771C29.365 27.8101 29.6758 27.941 30 27.941V27.941ZM30 30.4263C29.0275 30.4263 28.0949 30.0335 27.4073 29.3344C26.7196 28.6353 26.3333 27.6871 26.3333 26.6984C26.3333 25.7097 26.7196 24.7615 27.4073 24.0623C28.0949 23.3632 29.0275 22.9705 30 22.9705C30.9725 22.9705 31.9051 23.3632 32.5927 24.0623C33.2804 24.7615 33.6667 25.7097 33.6667 26.6984C33.6667 27.6871 33.2804 28.6353 32.5927 29.3344C31.9051 30.0335 30.9725 30.4263 30 30.4263Z" fill="black"/>
</svg>
