<svg width="48" height="48" viewBox="0 0 48 48" fill="none" xmlns="http://www.w3.org/2000/svg">
<g clip-path="url(#clip0)">
<path d="M-25.6001 6.40004C-25.6001 -11.2731 -11.2732 -25.6 6.3999 -25.6H41.5999C59.273 -25.6 73.5999 -11.2731 73.5999 6.40002V41.6C73.5999 59.2731 59.273 73.6 41.5999 73.6H6.39992C-11.2732 73.6 -25.6001 59.2731 -25.6001 41.6V6.40004Z" fill="white"/>
<path d="M30.2138 29.1633C31.3632 27.9286 32.1315 26.3785 32.4238 24.7046C32.7161 23.0308 32.5196 21.3065 31.8585 19.745C31.1975 18.1835 30.1008 16.8531 28.7042 15.9184C27.3075 14.9837 25.6721 14.4855 24 14.4855C22.3279 14.4855 20.6925 14.9837 19.2958 15.9184C17.8992 16.8531 16.8025 18.1835 16.1415 19.745C15.4804 21.3065 15.2839 23.0308 15.5762 24.7046C15.8685 26.3785 16.6368 27.9286 17.7862 29.1633C18.4458 28.0932 19.3621 27.2111 20.449 26.5998C21.536 25.9886 22.7579 25.6683 24 25.6689C25.2421 25.6683 26.464 25.9886 27.551 26.5998C28.6379 27.2111 29.5542 28.0932 30.2138 29.1633V29.1633ZM19.5817 30.9937L24 35.4846L28.4183 30.9937C28.0221 30.1432 27.3965 29.4245 26.6144 28.9212C25.8322 28.418 24.9256 28.1508 24 28.1508C23.0744 28.1508 22.1678 28.418 21.3856 28.9212C20.6035 29.4245 19.9779 30.1432 19.5817 30.9937V30.9937ZM24 39L16.2218 31.0918C14.6834 29.5278 13.6358 27.535 13.2114 25.3656C12.7869 23.1961 13.0048 20.9474 13.8373 18.9039C14.6699 16.8603 16.0798 15.1137 17.8887 13.8848C19.6977 12.6559 21.8244 12 24 12C26.1756 12 28.3023 12.6559 30.1113 13.8848C31.9202 15.1137 33.3301 16.8603 34.1627 18.9039C34.9952 20.9474 35.2131 23.1961 34.7886 25.3656C34.3642 27.535 33.3166 29.5278 31.7782 31.0918L24 39ZM24 21.941C24.3242 21.941 24.635 21.8101 24.8642 21.5771C25.0935 21.344 25.2222 21.028 25.2222 20.6984C25.2222 20.3688 25.0935 20.0527 24.8642 19.8197C24.635 19.5867 24.3242 19.4557 24 19.4557C23.6758 19.4557 23.365 19.5867 23.1358 19.8197C22.9065 20.0527 22.7778 20.3688 22.7778 20.6984C22.7778 21.028 22.9065 21.344 23.1358 21.5771C23.365 21.8101 23.6758 21.941 24 21.941V21.941ZM24 24.4263C23.0275 24.4263 22.0949 24.0335 21.4073 23.3344C20.7196 22.6353 20.3333 21.6871 20.3333 20.6984C20.3333 19.7097 20.7196 18.7615 21.4073 18.0623C22.0949 17.3632 23.0275 16.9705 24 16.9705C24.9725 16.9705 25.9051 17.3632 26.5927 18.0623C27.2804 18.7615 27.6667 19.7097 27.6667 20.6984C27.6667 21.6871 27.2804 22.6353 26.5927 23.3344C25.9051 24.0335 24.9725 24.4263 24 24.4263Z" fill="black"/>
</g>
<defs>
<clipPath id="clip0">
<rect width="48" height="48" rx="24" fill="white"/>
</clipPath>
</defs>
</svg>
